<?xml version="1.0" encoding="UTF-8" standalone="no"?>
<!-- Created with Inkscape (http://www.inkscape.org/) -->

<svg
   width="127.0002mm"
   height="127.00013mm"
   viewBox="0 0 127.0002 127.00013"
   version="1.1"
   id="svg1"
   xml:space="preserve"
   inkscape:version="1.4 (86a8ad7, 2024-10-11)"
   sodipodi:docname="nestjs.svg"
   xmlns:inkscape="http://www.inkscape.org/namespaces/inkscape"
   xmlns:sodipodi="http://sodipodi.sourceforge.net/DTD/sodipodi-0.dtd"
   xmlns="http://www.w3.org/2000/svg"
   xmlns:svg="http://www.w3.org/2000/svg"><sodipodi:namedview
     id="namedview1"
     pagecolor="#ffffff"
     bordercolor="#000000"
     borderopacity="0.25"
     inkscape:showpageshadow="2"
     inkscape:pageopacity="0.0"
     inkscape:pagecheckerboard="0"
     inkscape:deskcolor="#d1d1d1"
     inkscape:document-units="mm"
     inkscape:zoom="0.71891835"
     inkscape:cx="267.76337"
     inkscape:cy="335.92132"
     inkscape:window-width="1920"
     inkscape:window-height="1009"
     inkscape:window-x="-8"
     inkscape:window-y="-8"
     inkscape:window-maximized="1"
     inkscape:current-layer="layer1" /><defs
     id="defs1" /><g
     inkscape:label="Layer 1"
     inkscape:groupmode="layer"
     id="layer1"
     transform="translate(-34.1319,-89.279167)"><path
       d="m 108.91087,89.279167 c -0.91834,0 -1.77108,0.197568 -2.55824,0.460979 1.67268,1.119517 2.59103,2.601245 3.05021,4.280522 0.0329,0.230486 0.0984,0.395129 0.13124,0.625608 0.0329,0.197568 0.0656,0.395127 0.0656,0.592696 0.13125,2.897576 -0.75437,3.259771 -1.37752,4.971978 -0.95114,2.20612 -0.68877,4.57687 0.45917,6.48665 0.0984,0.23048 0.22959,0.4939 0.39359,0.72439 -1.24634,-8.330556 5.67404,-9.581783 6.95314,-12.183018 0.0984,-2.271973 -1.77108,-3.786619 -3.24698,-4.840286 -1.41031,-0.856102 -2.68945,-1.119519 -3.87016,-1.119519 z m 10.42974,1.876844 c -0.13124,0.757321 -0.0328,0.559759 -0.0655,0.954888 -0.0328,0.263411 -0.0328,0.59269 -0.0655,0.8561 -0.0656,0.263418 -0.13126,0.526829 -0.2296,0.790258 -0.0655,0.263411 -0.16399,0.526828 -0.26238,0.790238 -0.13125,0.263432 -0.22958,0.493908 -0.36078,0.757326 -0.0984,0.131765 -0.16398,0.263413 -0.26238,0.395128 -0.0655,0.09878 -0.13124,0.197563 -0.19678,0.296345 -0.16399,0.230496 -0.32799,0.460977 -0.49197,0.658536 -0.1968,0.197569 -0.36078,0.428049 -0.59038,0.592696 v 0.03297 c -0.19678,0.164637 -0.39357,0.3622 -0.62315,0.526832 -0.68876,0.526826 -1.4759,0.921953 -2.19747,1.415863 -0.22957,0.164631 -0.45917,0.29635 -0.65595,0.493909 -0.22958,0.164631 -0.42637,0.32926 -0.62315,0.52682 -0.2296,0.19757 -0.39359,0.39514 -0.59038,0.62563 -0.16399,0.19757 -0.36077,0.42805 -0.49196,0.65854 -0.164,0.23048 -0.32798,0.46098 -0.45918,0.69146 -0.13124,0.26341 -0.22958,0.49391 -0.36078,0.75732 -0.0984,0.26341 -0.19679,0.49391 -0.26238,0.75732 -0.0984,0.29635 -0.16399,0.55977 -0.22958,0.82319 -0.0328,0.13176 -0.0328,0.29633 -0.0656,0.42805 -0.0329,0.13176 -0.0329,0.26341 -0.0655,0.39513 0,0.2634 -0.0328,0.55975 -0.0328,0.82317 0,0.19756 0,0.39513 0.0328,0.59269 0,0.26341 0.0328,0.52683 0.0984,0.82317 0.0328,0.26341 0.0984,0.52683 0.164,0.79026 0.0984,0.26341 0.16399,0.52683 0.26238,0.79024 0.0656,0.16465 0.16398,0.32928 0.22959,0.46098 l -7.54353,-2.93051 c -1.27913,-0.3622 -2.52544,-0.69146 -3.804566,-0.98781 -0.688751,-0.16463 -1.377502,-0.32927 -2.066264,-0.49391 -1.967884,-0.39512 -3.968541,-0.69146 -5.969223,-0.88901 -0.06554,0 -0.09839,-0.033 -0.163985,-0.033 -1.96789,-0.19757 -3.902955,-0.29635 -5.870829,-0.29635 -1.443119,0 -2.886238,0.0658 -4.296548,0.16463 -2.000677,0.13177 -4.001354,0.39513 -6.002016,0.72439 -0.491972,0.0658 -0.983945,0.16465 -1.475922,0.26343 -1.016728,0.19755 -2.000662,0.42805 -2.951803,0.65854 -0.491973,0.13176 -0.983945,0.26342 -1.475917,0.39512 -0.491957,0.19756 -0.951126,0.42806 -1.410311,0.62562 -0.360776,0.16463 -0.721549,0.32927 -1.082325,0.49391 -0.06555,0.033 -0.131243,0.033 -0.163986,0.0658 -0.327986,0.16462 -0.62317,0.29632 -0.918338,0.46097 -0.09839,0.033 -0.164002,0.0658 -0.229593,0.0988 -0.360774,0.16463 -0.721548,0.36219 -1.016733,0.52683 -0.229592,0.0988 -0.459169,0.23049 -0.655957,0.32928 -0.0984,0.0658 -0.229594,0.13175 -0.295184,0.16463 -0.295183,0.16463 -0.590367,0.32926 -0.852748,0.49391 -0.295184,0.16463 -0.557565,0.32926 -0.787157,0.49389 -0.229576,0.16465 -0.459167,0.29635 -0.655958,0.46098 -0.03286,0.033 -0.06555,0.033 -0.09839,0.0658 -0.196788,0.13176 -0.426365,0.29634 -0.623154,0.46099 0,0 -0.03285,0.033 -0.06555,0.0658 -0.163986,0.13176 -0.327988,0.26341 -0.491973,0.39511 -0.06554,0.033 -0.131244,0.0988 -0.196789,0.13176 -0.163985,0.13176 -0.327971,0.29635 -0.491957,0.42806 -0.03285,0.0658 -0.09839,0.0988 -0.131244,0.13176 -0.196789,0.19757 -0.393579,0.36219 -0.590367,0.55976 -0.03285,0 -0.03285,0.033 -0.06555,0.0658 -0.196788,0.16464 -0.393577,0.3622 -0.590366,0.55977 -0.03285,0.033 -0.03285,0.0658 -0.06555,0.0658 -0.163986,0.16462 -0.327972,0.32927 -0.491973,0.52682 -0.06554,0.0658 -0.163986,0.13176 -0.229577,0.19756 -0.163985,0.19757 -0.360775,0.39513 -0.557563,0.5927 -0.03285,0.0658 -0.09839,0.0988 -0.131244,0.16463 -0.262382,0.26343 -0.491974,0.52684 -0.754354,0.79026 -0.03285,0.033 -0.06554,0.0658 -0.09839,0.0988 -0.524776,0.55975 -1.08234,1.11951 -1.672692,1.61342 -0.590367,0.52683 -1.213523,1.02074 -1.836692,1.44879 -0.655959,0.46099 -1.279114,0.8561 -1.967875,1.25123 -0.655959,0.36218 -1.34472,0.69147 -2.06627,0.98782 -0.688762,0.29634 -1.410311,0.55976 -2.131861,0.79024 -1.377523,0.29634 -2.787835,0.8561 -4.001357,0.95488 -0.26238,0 -0.557564,0.0658 -0.819945,0.0988 -0.295182,0.0658 -0.557563,0.13177 -0.819943,0.19758 -0.262381,0.0988 -0.524776,0.19755 -0.787157,0.29633 -0.262381,0.0988 -0.524761,0.2305 -0.787142,0.36221 -0.229592,0.16462 -0.491971,0.29634 -0.721565,0.46097 -0.229577,0.16463 -0.45917,0.36219 -0.655959,0.55976 -0.229576,0.16464 -0.459169,0.39513 -0.655958,0.59268 -0.196789,0.23051 -0.393578,0.42807 -0.557564,0.65854 -0.163985,0.26341 -0.360775,0.49391 -0.491973,0.75733 -0.163985,0.2305 -0.327971,0.4939 -0.459169,0.75731 -0.131244,0.29636 -0.26238,0.55977 -0.360775,0.85612 -0.09839,0.26341 -0.196789,0.55975 -0.295183,0.8561 -0.06555,0.26341 -0.131244,0.52683 -0.163986,0.79023 0,0.033 -0.03285,0.0658 -0.03285,0.0988 -0.06555,0.29636 -0.06555,0.69149 -0.09839,0.88906 -0.03285,0.23048 -0.06554,0.42803 -0.06554,0.65854 0,0.13176 0,0.29633 0.03285,0.42804 0.03285,0.2305 0.06554,0.42806 0.131244,0.62563 0.06555,0.19754 0.131244,0.39511 0.229577,0.59267 v 0.033 c 0.09839,0.19758 0.229592,0.39514 0.360775,0.5927 0.131244,0.19756 0.262396,0.39513 0.426381,0.5927 0.163986,0.16463 0.360776,0.36218 0.557564,0.52682 0.196789,0.19756 0.393579,0.36219 0.623155,0.52682 0.787156,0.69148 0.983945,0.92198 2.00068,1.4488 0.163985,0.0988 0.327987,0.16464 0.524776,0.26342 0.03285,0 0.06555,0.033 0.09839,0.033 0,0.0658 0,0.0988 0.03285,0.16465 0.03285,0.26342 0.09839,0.52682 0.163986,0.79025 0.06554,0.29634 0.164001,0.55977 0.262395,0.79025 0.09839,0.19757 0.163986,0.39512 0.262381,0.59269 0.03285,0.0658 0.06555,0.13176 0.0984,0.16463 0.131243,0.26341 0.26238,0.49392 0.393562,0.72439 0.164002,0.23049 0.327987,0.46098 0.491972,0.69148 0.163987,0.19756 0.360776,0.42805 0.557564,0.62561 0.19679,0.19756 0.393579,0.3622 0.623172,0.55975 0,0 0.03285,0.033 0.06554,0.033 0.19679,0.16464 0.393578,0.32928 0.590368,0.46097 0.229577,0.16464 0.459169,0.29634 0.721548,0.42806 0.229593,0.13176 0.491974,0.26341 0.754354,0.3622 0.196789,0.0988 0.426366,0.16464 0.655959,0.23049 0.03285,0.033 0.06554,0.033 0.131244,0.0658 0.131244,0.033 0.295167,0.0658 0.426366,0.0988 -0.09839,1.77805 -0.131245,3.45733 0.131244,4.05003 0.295169,0.65854 1.738283,-1.35001 3.181398,-3.6549 -0.196789,2.27197 -0.327987,4.93904 0,5.72931 0.360774,0.82316 2.328649,-1.74515 4.034143,-4.57688 23.253731,-5.40002 44.474019,10.73424 46.704273,33.51976 -0.426376,-3.55612 -4.7885,-5.53174 -6.789167,-5.03783 -0.983945,2.4366 -2.65664,5.56466 -5.346063,7.50736 0.229582,-2.17319 0.131233,-4.41222 -0.327977,-6.58541 -0.721564,3.02929 -2.13188,5.86103 -4.066966,8.29763 -3.115804,0.23048 -6.231613,-1.28417 -7.871516,-3.55612 -0.131243,-0.0988 -0.163985,-0.29636 -0.26238,-0.42806 -0.09839,-0.23051 -0.196789,-0.46098 -0.26238,-0.69148 -0.09839,-0.23048 -0.163986,-0.46097 -0.196789,-0.69146 -0.03284,-0.2305 -0.03284,-0.46098 -0.03284,-0.72439 0,-0.16465 0,-0.32927 0,-0.4939 0.03284,-0.23051 0.09839,-0.461 0.163986,-0.69149 0.06555,-0.23048 0.131244,-0.46097 0.229592,-0.69147 0.131249,-0.23047 0.229577,-0.46097 0.393583,-0.69145 0.557559,-1.58052 0.557559,-2.86466 -0.459169,-3.62198 -0.196794,-0.13176 -0.393583,-0.2305 -0.623175,-0.32928 -0.131243,-0.033 -0.295183,-0.0988 -0.426366,-0.13176 -0.09839,-0.033 -0.163985,-0.0658 -0.26238,-0.0988 -0.229592,-0.0658 -0.459184,-0.13177 -0.688761,-0.16464 -0.229592,-0.0658 -0.459169,-0.0988 -0.688761,-0.0988 -0.229577,-0.033 -0.491973,-0.0658 -0.721549,-0.0658 -0.163986,0 -0.327987,0.033 -0.491973,0.033 -0.26238,0 -0.491972,0.033 -0.721549,0.0988 -0.229592,0.033 -0.459169,0.0658 -0.688761,0.13175 -0.229577,0.0658 -0.459174,0.13176 -0.688766,0.23051 -0.229572,0.0988 -0.426366,0.19756 -0.655953,0.29634 -0.196774,0.0988 -0.393566,0.23048 -0.623158,0.32926 -7.641924,5.00491 -3.083003,16.72695 2.131863,20.11844 -1.967877,0.3622 -3.96854,0.79027 -4.526105,1.2183 -0.03285,0.033 -0.06554,0.0658 -0.06554,0.0658 1.410311,0.85609 2.886216,1.5805 4.427709,2.2061 2.099071,0.69148 4.329325,1.31709 5.313275,1.58051 v 0.033 c 2.722221,0.55977 5.477256,0.75733 8.265078,0.5927 14.529496,-1.02074 26.435147,-12.11718 28.599817,-26.73679 0.0656,0.29635 0.13124,0.55975 0.19679,0.85611 0.0984,0.59267 0.22958,1.21829 0.29517,1.8439 v 0.033 c 0.0655,0.29635 0.0984,0.59269 0.13124,0.8561 v 0.13176 c 0.0329,0.29635 0.0656,0.5927 0.0656,0.8561 0.0328,0.3622 0.0656,0.72439 0.0656,1.08661 v 0.52683 c 0,0.16464 0.0328,0.36219 0.0328,0.52683 0,0.19757 -0.0328,0.39512 -0.0328,0.59268 v 0.46098 c 0,0.2305 -0.0329,0.42805 -0.0329,0.65855 0,0.13175 0,0.26341 -0.0328,0.42805 0,0.2305 -0.0328,0.46097 -0.0328,0.72439 -0.0329,0.0988 -0.0329,0.19756 -0.0329,0.29635 -0.0328,0.26342 -0.0656,0.49391 -0.0984,0.75733 0,0.0988 0,0.19756 -0.0328,0.29635 -0.0329,0.32926 -0.0984,0.62561 -0.13123,0.95487 v 0.033 0.033 c -0.0655,0.29634 -0.13125,0.62561 -0.1968,0.92195 v 0.0988 c -0.0655,0.29634 -0.13124,0.59269 -0.19678,0.88902 0,0.033 -0.0328,0.0988 -0.0328,0.13175 -0.0656,0.29636 -0.13125,0.5927 -0.22958,0.88906 v 0.0988 c -0.0984,0.32926 -0.19679,0.62561 -0.26239,0.92196 -0.0328,0.033 -0.0328,0.0658 -0.0328,0.0658 -0.0984,0.32928 -0.19678,0.65854 -0.29517,0.98781 -0.13124,0.32928 -0.22958,0.62562 -0.36077,0.95489 -0.13124,0.32927 -0.2296,0.65855 -0.36079,0.95488 -0.13125,0.32928 -0.26239,0.62563 -0.39357,0.95489 h -0.0329 c -0.13125,0.29634 -0.2624,0.62562 -0.4264,0.92197 -0.0328,0.0988 -0.0655,0.16463 -0.0984,0.23047 -0.0328,0.033 -0.0328,0.0658 -0.0656,0.0988 -2.13185,4.31344 -5.28047,8.10005 -9.21621,11.0635 -0.26238,0.16463 -0.524771,0.3622 -0.787146,0.55975 -0.06555,0.0658 -0.164001,0.0988 -0.229592,0.16463 -0.229592,0.16464 -0.459174,0.32926 -0.721544,0.49392 l 0.09839,0.19756 h 0.03284 c 0.459164,-0.0658 0.918338,-0.13176 1.377513,-0.19756 h 0.03284 c 0.852749,-0.13176 1.705499,-0.29635 2.558249,-0.46098 0.22957,-0.033 0.49197,-0.0988 0.72154,-0.16465 0.16399,-0.033 0.29519,-0.0658 0.45917,-0.0988 0.22959,-0.033 0.45918,-0.0988 0.68877,-0.13175 0.19678,-0.0658 0.39358,-0.0988 0.59036,-0.16464 3.27979,-0.79026 6.4612,-1.87686 9.51139,-3.161 -5.21486,7.14516 -12.20083,12.9074 -20.367509,16.69402 3.771772,-0.26342 7.543529,-0.88903 11.184099,-1.94269 13.21757,-3.91834 24.33606,-12.84157 30.99404,-24.85995 -1.34471,7.60616 -4.36212,14.85011 -8.82264,21.17212 3.1814,-2.10735 6.10042,-4.54395 8.75705,-7.30982 7.34674,-7.70493 12.16804,-17.48426 13.80793,-27.98802 1.11513,5.20248 1.44311,10.56961 0.95114,15.87086 23.68012,-33.15756 1.96788,-67.53343 -7.11715,-76.58837 -0.0329,-0.0658 -0.0655,-0.0988 -0.0655,-0.16463 -0.0329,0.033 -0.0329,0.033 -0.0329,0.0658 0,-0.033 0,-0.033 -0.0328,-0.0658 0,0.39513 -0.0328,0.79024 -0.0656,1.18537 -0.0984,0.75732 -0.19678,1.48171 -0.32798,2.20612 -0.16398,0.72439 -0.36078,1.44877 -0.55757,2.17318 -0.22958,0.69146 -0.49195,1.41585 -0.78714,2.10733 -0.29518,0.65853 -0.62317,1.35001 -0.98394,2.00856 -0.36078,0.62561 -0.75435,1.28415 -1.18072,1.87683 -0.42637,0.62563 -0.88555,1.21831 -1.34473,1.77805 -0.49198,0.59271 -1.01673,1.11954 -1.5415,1.64637 -0.32797,0.29635 -0.62315,0.55976 -0.95115,0.82317 -0.26237,0.2305 -0.49195,0.42807 -0.75435,0.65854 -0.59036,0.46098 -1.18072,0.88903 -1.83667,1.28417 -0.62317,0.39511 -1.27911,0.79024 -1.93507,1.11952 -0.68876,0.32927 -1.37752,0.62561 -2.06628,0.92196 -0.68876,0.2634 -1.41031,0.4939 -2.13188,0.69146 -0.72154,0.19756 -1.47589,0.3622 -2.19745,0.4939 -0.75434,0.13176 -1.5087,0.19756 -2.23025,0.26343 -0.52478,0.033 -1.04954,0.0658 -1.57431,0.0658 -0.75436,0 -1.5087,-0.0658 -2.23026,-0.13176 -0.75434,-0.0658 -1.50871,-0.16466 -2.23025,-0.32929 -0.75436,-0.13176 -1.47592,-0.32928 -2.19748,-0.55975 h -0.0328 c 0.72155,-0.0658 1.44311,-0.13177 2.16467,-0.26342 0.75434,-0.13176 1.4759,-0.29634 2.19746,-0.49392 0.72155,-0.19756 1.4431,-0.42805 2.13186,-0.69146 0.72155,-0.26342 1.41031,-0.59268 2.06628,-0.92197 0.68875,-0.32927 1.31191,-0.69146 1.96787,-1.08659 0.62315,-0.42805 1.24632,-0.85609 1.83668,-1.31708 0.59036,-0.46097 1.14792,-0.95487 1.6727,-1.48171 0.55757,-0.49392 1.04953,-1.05367 1.5415,-1.61344 0.49196,-0.59267 0.95114,-1.18536 1.37751,-1.77805 0.0656,-0.0988 0.13125,-0.23048 0.1968,-0.32927 0.32797,-0.52683 0.65594,-1.05367 0.95112,-1.58051 0.36078,-0.65854 0.68877,-1.31708 0.98394,-2.00854 0.29519,-0.69147 0.55758,-1.38295 0.78716,-2.10733 0.22958,-0.69148 0.39357,-1.41587 0.55757,-2.14025 0.13125,-0.75733 0.26237,-1.48173 0.32797,-2.20612 0.0656,-0.75733 0.13124,-1.51465 0.13124,-2.23904 0,-0.52684 -0.0329,-1.05367 -0.0655,-1.58049 -0.0656,-0.75733 -0.164,-1.48173 -0.26239,-2.20612 -0.13125,-0.75733 -0.29518,-1.48172 -0.49198,-2.20612 -0.22957,-0.69146 -0.45916,-1.41587 -0.72154,-2.10732 -0.2624,-0.69148 -0.59036,-1.38295 -0.91836,-2.0415 -0.36077,-0.65854 -0.72154,-1.31707 -1.11511,-1.94268 -0.42638,-0.625608 -0.85276,-1.218299 -1.31193,-1.810995 -0.49196,-0.559759 -0.98393,-1.119518 -1.50871,-1.679276 -0.26238,-0.263414 -0.55756,-0.559759 -0.85274,-0.823167 -1.4759,-1.152455 -3.01741,-2.239058 -4.55891,-3.226863 -0.22958,-0.131757 -0.42637,-0.230492 -0.65596,-0.329279 -1.08234,-0.691458 -2.09907,-1.053668 -3.1158,-1.382929 z"
       fill="#e0234e"
       fill-rule="evenodd"
       id="path1"
       style="stroke-width:0.999997" /></g></svg>
