<?xml version="1.0" encoding="UTF-8" standalone="no"?>
<!-- Created with Inkscape (http://www.inkscape.org/) -->

<svg
   width="127mm"
   height="127mm"
   viewBox="0 0 127 127"
   version="1.1"
   id="svg1"
   xml:space="preserve"
   inkscape:version="1.4 (86a8ad7, 2024-10-11)"
   sodipodi:docname="rust.svg"
   xmlns:inkscape="http://www.inkscape.org/namespaces/inkscape"
   xmlns:sodipodi="http://sodipodi.sourceforge.net/DTD/sodipodi-0.dtd"
   xmlns="http://www.w3.org/2000/svg"
   xmlns:svg="http://www.w3.org/2000/svg"><sodipodi:namedview
     id="namedview1"
     pagecolor="#ffffff"
     bordercolor="#000000"
     borderopacity="0.25"
     inkscape:showpageshadow="2"
     inkscape:pageopacity="0.0"
     inkscape:pagecheckerboard="0"
     inkscape:deskcolor="#d1d1d1"
     inkscape:document-units="mm"
     inkscape:zoom="0.71891835"
     inkscape:cx="251.07163"
     inkscape:cy="230.20695"
     inkscape:window-width="1920"
     inkscape:window-height="1009"
     inkscape:window-x="-8"
     inkscape:window-y="-8"
     inkscape:window-maximized="1"
     inkscape:current-layer="layer1" /><defs
     id="defs1" /><g
     inkscape:label="Layer 1"
     inkscape:groupmode="layer"
     id="layer1"
     transform="translate(-38.63328,-87.699837)"><path
       d="m 164.76561,149.64237 -5.3315,-3.30047 a 72.33538,72.334072 0 0 0 -0.15188,-1.55273 l 4.5819,-4.27378 a 1.8286003,1.8285672 0 0 0 0.54819,-1.70006 1.8281042,1.8280711 0 0 0 -1.1559,-1.36127 l -5.85738,-2.19022 a 68.14091,68.139678 0 0 0 -0.45887,-1.51206 l 3.65372,-5.07444 a 1.8345534,1.8345203 0 0 0 -1.1941,-2.88424 l -6.17636,-1.00457 c -0.24011,-0.46829 -0.49014,-0.92967 -0.74216,-1.38705 l 2.59508,-5.69653 a 1.827112,1.827079 0 0 0 -0.14288,-1.78096 1.8246315,1.8245986 0 0 0 -1.58949,-0.81456 l -6.26863,0.21827 a 49.533935,49.533039 0 0 0 -0.99021,-1.20101 l 1.44066,-6.10581 a 1.832569,1.8325359 0 0 0 -0.48915,-1.71943 1.8345534,1.8345203 0 0 0 -1.71847,-0.48914 l -6.10444,1.43914 a 52.68115,52.680198 0 0 0 -1.20352,-0.99018 l 0.21928,-6.268029 a 1.8276081,1.8275751 0 0 0 -0.8136,-1.589951 1.8320729,1.8320398 0 0 0 -1.78097,-0.143866 l -5.69516,2.596506 a 66.097004,66.095809 0 0 0 -1.38706,-0.74413 l -1.00708,-6.177239 a 1.8355456,1.8355124 0 0 0 -2.88328,-1.194075 l -5.07803,3.653661 c -0.49957,-0.158753 -1.00211,-0.312037 -1.50911,-0.45739 l -2.19026,-5.858262 a 1.8305847,1.8305516 0 0 0 -1.36177,-1.158852 1.8390183,1.838985 0 0 0 -1.69862,0.548669 l -4.27385,4.585309 a 55.120938,55.119941 0 0 0 -1.55276,-0.151797 l -3.30053,-5.332908 a 1.8345534,1.8345203 0 0 0 -3.11992,0 l -3.300504,5.332908 a 54.768712,54.767722 0 0 0 -1.554261,0.151797 l -4.274847,-4.585309 a 1.8330651,1.833032 0 0 0 -3.060392,0.610183 l -2.189754,5.858262 c -0.507506,0.145347 -1.009556,0.299634 -1.510612,0.45739 l -5.077028,-3.653661 a 1.8290964,1.8290633 0 0 0 -1.775511,-0.205875 1.8380261,1.8379928 0 0 0 -1.108762,1.39995 l -1.00708,6.177239 c -0.466331,0.2416 -0.927187,0.49014 -1.387068,0.74413 l -5.695646,-2.597001 a 1.8286003,1.8285672 0 0 0 -1.779992,0.144353 1.8276081,1.8275751 0 0 0 -0.814575,1.589952 l 0.218269,6.268026 a 58.553905,58.552846 0 0 0 -1.203524,0.99019 l -6.104415,-1.43865 a 1.8405065,1.8404733 0 0 0 -1.719467,0.48864 1.832569,1.8325359 0 0 0 -0.48915,1.71943 l 1.43818,6.1058 c -0.333881,0.39539 -0.663787,0.79574 -0.98773,1.20103 l -6.268627,-0.21828 a 1.8459636,1.8459302 0 0 0 -1.589493,0.81407 1.8335612,1.8335281 0 0 0 -0.144375,1.78095 l 2.596555,5.69703 c -0.252525,0.45739 -0.50205,0.91875 -0.74415,1.38706 l -6.175871,1.00457 a 1.8355456,1.8355124 0 0 0 -1.194093,2.88424 l 3.653735,5.07493 c -0.158812,0.50104 -0.313031,1.00408 -0.458887,1.51157 l -5.857871,2.19022 a 1.8365378,1.8365046 0 0 0 -0.607724,3.06133 l 4.582421,4.27327 c -0.057,0.51594 -0.107624,1.03534 -0.151312,1.55324 l -5.332496,3.30045 a 1.8330651,1.833032 0 0 0 -0.868162,1.56019 c 0,0.63697 0.328893,1.22681 0.868649,1.55919 l 5.332009,3.30046 c 0.04369,0.5194 0.09431,1.03779 0.151312,1.55324 l -4.582909,4.27475 a 1.8340573,1.8340242 0 0 0 0.608212,3.06036 l 5.857871,2.1902 c 0.145875,0.50701 0.300131,1.01053 0.458887,1.51158 l -3.653735,5.07543 a 1.8335612,1.8335281 0 0 0 1.195593,2.88325 l 6.174877,1.00457 c 0.241594,0.46831 0.48915,0.92966 0.744131,1.38903 l -2.597042,5.69505 a 1.8310808,1.8310476 0 0 0 0.144375,1.78094 1.8276081,1.8275751 0 0 0 1.589493,0.81407 l 6.265645,-0.21926 c 0.326925,0.40728 0.655837,0.80663 0.990712,1.2035 l -1.43818,6.1068 a 1.8266159,1.8265829 0 0 0 0.48915,1.71595 1.827112,1.827079 0 0 0 1.719467,0.48766 l 6.104415,-1.43767 c 0.396881,0.33735 0.798712,0.66477 1.20403,0.98723 l -0.218287,6.26999 a 1.832569,1.8325359 0 0 0 2.594079,1.73234 l 5.695646,-2.59503 a 52.332894,52.331948 0 0 0 1.387068,0.74363 l 1.00708,6.17378 a 1.8315769,1.8315437 0 0 0 1.108762,1.40144 1.8385222,1.8384889 0 0 0 1.775511,-0.20488 l 5.074553,-3.65614 c 0.501056,0.15881 1.004587,0.31402 1.511587,0.45987 l 2.190261,5.85578 a 1.8281042,1.8280711 0 0 0 1.361267,1.15636 1.8241355,1.8241025 0 0 0 1.699124,-0.54867 l 4.274847,-4.58282 c 0.515925,0.0594 1.03485,0.10912 1.554262,0.15524 l 3.300507,5.33193 a 1.8365378,1.8365046 0 0 0 1.55923,0.86815 1.8370339,1.8370007 0 0 0 1.5602,-0.86815 l 3.30051,-5.33193 c 0.51941,-0.0461 1.03783,-0.0958 1.55326,-0.15524 l 4.27386,4.58282 a 1.8256237,1.8255907 0 0 0 1.69861,0.54867 1.8305847,1.8305516 0 0 0 1.36129,-1.15636 l 2.19024,-5.85578 c 0.50702,-0.14587 1.01104,-0.30112 1.5121,-0.45987 l 5.07554,3.65614 a 1.8355456,1.8355124 0 0 0 2.88328,-1.19656 l 1.00708,-6.17378 c 0.46583,-0.24159 0.9267,-0.49261 1.38658,-0.74411 l 5.69565,2.59551 a 1.8315769,1.8315437 0 0 0 2.59457,-1.73234 l -0.21829,-6.2695 a 48.994185,48.993299 0 0 0 1.20204,-0.98772 l 6.10492,1.43767 c 0.62012,0.14587 1.27001,-0.0347 1.71797,-0.48766 a 1.8266159,1.8265829 0 0 0 0.48915,-1.71595 l -1.43767,-6.1068 c 0.33485,-0.39687 0.66476,-0.79622 0.98722,-1.2035 l 6.26865,0.21926 a 1.8261198,1.8260868 0 0 0 1.58947,-0.81357 1.8281042,1.8280711 0 0 0 0.14344,-1.78194 l -2.59556,-5.69405 c 0.2535,-0.45987 0.50253,-0.92122 0.74265,-1.38905 l 6.17637,-1.00505 a 1.8266159,1.8265829 0 0 0 1.39997,-1.10925 1.8335612,1.8335281 0 0 0 -0.20587,-1.774 l -3.65372,-5.07495 c 0.15769,-0.50153 0.31204,-1.00505 0.45889,-1.51206 l 5.85688,-2.1902 a 1.8276081,1.8275751 0 0 0 1.15638,-1.36177 1.8241355,1.8241025 0 0 0 -0.54868,-1.69859 l -4.58143,-4.27475 c 0.0555,-0.51593 0.10669,-1.03483 0.15132,-1.55275 l 5.33202,-3.30095 a 1.8305847,1.8305516 0 0 0 0.86865,-1.55919 c 0,-0.63548 -0.32741,-1.22632 -0.86767,-1.56019 z m -35.685,44.2289 c -2.03597,-0.43904 -3.33076,-2.44571 -2.8937,-4.48809 0.43556,-2.03988 2.44078,-3.33815 4.47626,-2.8991 2.03596,0.43606 3.33275,2.44619 2.89618,4.48459 -0.43656,2.03891 -2.44375,3.33866 -4.47874,2.9026 z m -1.81172,-12.25278 a 3.4374312,3.437369 0 0 0 -4.08284,2.6451 l -1.8931,8.83379 c -5.8415,2.65107 -12.32792,4.12394 -19.15963,4.12394 -6.987972,0 -13.615774,-1.54579 -19.560963,-4.30998 l -1.892099,-8.83328 c -0.397875,-1.85882 -2.225473,-3.04297 -4.081853,-2.64413 l -7.798589,1.67478 a 46.271625,46.270788 0 0 1 -4.032241,-4.75248 h 37.946165 c 0.42913,0 0.71537,-0.0778 0.71537,-0.46881 v -13.42256 c 0,-0.3904 -0.28624,-0.46829 -0.71585,-0.46829 H 91.61615 v -8.50786 h 12.00297 c 1.09538,0 5.85836,0.31254 7.38088,6.4005 0.47724,1.8722 1.524,7.96215 2.24036,9.91175 0.71338,2.18674 3.618,6.55477 6.71362,6.55477 h 18.90861 c 0.2148,0 0.444,-0.0244 0.6856,-0.0679 a 46.593093,46.592251 0 0 1 -4.30063,5.04518 l -7.97818,-1.71447 z m -52.481715,12.06823 c -2.036474,0.43954 -4.041185,-0.85872 -4.479241,-2.89863 -0.435562,-2.04335 0.859237,-4.04904 2.895204,-4.48806 2.036474,-0.43557 4.042179,0.86269 4.478735,2.90209 0.435562,2.03891 -0.860231,4.04805 -2.895205,4.4846 z M 60.392022,135.31743 c 0.844856,1.90596 -0.015,4.13983 -1.918386,4.98317 -1.903518,0.84581 -4.131466,-0.015 -4.975815,-1.92233 -0.844856,-1.90744 0.015,-4.13735 1.918386,-4.98317 a 3.7693178,3.7692496 0 0 1 4.975815,1.92182 z m -4.424153,10.48722 8.124013,-3.61 a 3.4438804,3.4438182 0 0 0 1.74823,-4.54315 l -1.672818,-3.78314 h 6.580177 v 29.6599 H 57.471524 a 46.483952,46.483111 0 0 1 -1.76908,-12.73547 c 0,-1.68571 0.09075,-3.35156 0.265425,-4.98863 z m 35.65025,-2.88075 v -8.74251 h 15.669611 c 0.80962,0 5.71499,0.93563 5.71499,4.60367 0,3.04545 -3.76237,4.13734 -6.85649,4.13734 H 91.618119 Z m 56.947551,7.86889 c 0,1.15983 -0.0428,2.30778 -0.1275,3.44678 h -4.76397 c -0.47674,0 -0.66874,0.31354 -0.66874,0.78035 v 2.18772 c 0,5.14937 -2.90362,6.26953 -5.44809,6.55477 -2.42293,0.27284 -5.10977,-1.01449 -5.44067,-2.49729 -1.42974,-8.03954 -3.81148,-9.75649 -7.57285,-12.72356 4.66824,-2.96412 9.52499,-7.3371 9.52499,-13.19089 0,-6.32013 -4.33288,-10.3012 -7.28662,-12.25329 -4.14337,-2.73144 -8.73125,-3.27912 -9.96899,-3.27912 H 67.545198 c 6.680883,-7.45616 15.735571,-12.73796 25.976439,-14.65979 l 5.807264,6.09191 a 3.4344546,3.4343925 0 0 0 4.861219,0.11212 l 6.49784,-6.21494 c 13.61529,2.53499 25.143,11.01009 31.7862,22.63782 l -4.44847,10.0472 c -0.76796,1.73877 0.015,3.77223 1.74971,4.54265 l 8.56456,3.80396 c 0.14794,1.52051 0.22571,3.05638 0.22571,4.6136 z M 99.331395,99.975879 c 1.504645,-1.441126 3.891355,-1.384076 5.332005,0.122531 1.43768,1.51107 1.38312,3.90021 -0.12506,5.34035 -1.50465,1.44162 -3.89135,1.38556 -5.332007,-0.12403 a 3.7807279,3.7806595 0 0 1 0.125062,-5.338862 z m 44.143865,35.524601 a 3.7673333,3.7672651 0 0 1 4.97484,-1.92084 c 1.904,0.84433 2.76324,3.07721 1.91838,4.98317 a 3.7678294,3.7677613 0 0 1 -4.97581,1.92232 c -1.90153,-0.84482 -2.76077,-3.07571 -1.91741,-4.98465 z"
       id="path1"
       style="stroke-width:0.264583" /></g></svg>
